<svg width="337" height="124" viewBox="0 0 337 124" fill="none" xmlns="http://www.w3.org/2000/svg">
<path d="M1.67631 82.6978C0.558769 82.6978 0 82.288 0 81.4685C0 80.798 0.484266 80.351 1.4528 80.1274L4.02314 79.6804C5.58769 79.3824 6.59347 78.9727 7.04049 78.4511C7.562 77.9296 7.82276 76.8866 7.82276 75.322V9.61082C7.82276 8.04627 7.562 7.00323 7.04049 6.48171C6.59347 5.9602 5.58769 5.55044 4.02314 5.25243L1.4528 4.80541C0.484266 4.5819 0 4.13488 0 3.46436C0 2.64484 0.558769 2.23507 1.67631 2.23507H24.3623C28.0874 2.23507 31.4028 3.01735 34.3084 4.5819C37.214 6.14645 39.4863 8.26978 41.1254 10.9519C42.8389 13.634 43.6957 16.6886 43.6957 20.1157C43.6957 23.4683 42.6899 26.5974 40.6784 29.503C38.7413 32.3341 35.9102 34.7182 32.1851 36.6552C31.7381 36.8787 31.5146 37.1768 31.5146 37.5493C31.5146 37.9218 31.7753 38.1825 32.2968 38.3315C37.363 40.0451 41.2744 42.8017 44.031 46.6013C46.7876 50.3264 48.1659 54.7593 48.1659 59.9C48.1659 64.2957 47.1601 68.2443 45.1485 71.7459C43.137 75.173 40.3431 77.8551 36.767 79.7922C33.2654 81.7292 29.2795 82.6978 24.8093 82.6978H1.67631ZM21.6802 36.767C25.6289 36.767 28.907 35.2397 31.5146 32.1851C34.1967 29.056 35.5377 25.1818 35.5377 20.5627C35.5377 15.9435 34.2712 12.2184 31.7381 9.38731C29.205 6.48171 25.8524 5.02891 21.6802 5.02891C17.7316 5.02891 15.7573 6.51897 15.7573 9.49907V30.6205C15.7573 32.7811 16.2043 34.3457 17.0983 35.3142C18.0669 36.2827 19.5942 36.767 21.6802 36.767ZM23.3565 79.9039C28.1992 79.9039 32.1478 78.0786 35.2024 74.428C38.257 70.7029 39.7843 65.7485 39.7843 59.5648C39.7843 53.381 38.2198 48.5011 35.0907 44.925C32.0361 41.3489 27.9012 39.5608 22.686 39.5608C18.0669 39.5608 15.7573 41.3861 15.7573 45.0368V72.1929C15.7573 77.3336 18.2904 79.9039 23.3565 79.9039Z" fill="#5F4073"/>
<path d="M56.4051 82.6978C55.2876 82.6978 54.7288 82.288 54.7288 81.4685C54.7288 80.798 55.2131 80.351 56.1816 80.1274L58.7519 79.6804C60.3165 79.3824 61.3223 78.9727 61.7693 78.4511C62.2908 77.9296 62.5516 76.8866 62.5516 75.322V9.61082C62.5516 8.04627 62.2908 7.00323 61.7693 6.48171C61.3223 5.9602 60.3165 5.55044 58.7519 5.25243L56.1816 4.80541C55.2131 4.5819 54.7288 4.13488 54.7288 3.46436C54.7288 2.64484 55.2876 2.23507 56.4051 2.23507H76.856C77.9736 2.23507 78.5323 2.68209 78.5323 3.57612C78.5323 4.24664 78.1226 4.6564 77.303 4.80541L74.2857 5.25243C72.7211 5.47593 71.6781 5.88569 71.1566 6.48171C70.7096 7.07774 70.4861 8.15802 70.4861 9.72257V72.3047C70.4861 74.9868 71.2311 76.9238 72.7211 78.1159C74.2857 79.3079 76.2228 79.9039 78.5323 79.9039C80.2459 79.9039 81.9967 79.5687 83.7848 78.8982C85.6473 78.1531 87.3236 76.8121 88.8137 74.875C90.3037 72.8635 91.4213 69.9579 92.1663 66.1582L93.6191 58.6707C93.8426 57.7022 94.4014 57.2179 95.2954 57.2179C96.3384 57.2179 96.7855 57.8512 96.6365 59.1177L95.2954 80.1274C95.1464 81.841 94.2151 82.6978 92.5016 82.6978H56.4051Z" fill="#5F4073"/>
<path d="M129.65 83.7036C126.074 83.7036 122.721 82.6605 119.592 80.5745C116.463 78.4139 113.707 75.471 111.322 71.7459C109.013 68.0208 107.188 63.6624 105.847 58.6707C104.58 53.6046 103.947 48.1659 103.947 42.3547C103.947 36.5435 104.58 31.142 105.847 26.1504C107.188 21.1587 109.013 16.8003 111.322 13.0752C113.707 9.27556 116.463 6.33271 119.592 4.24664C122.721 2.16057 126.074 1.11754 129.65 1.11754C133.226 1.11754 136.542 2.16057 139.596 4.24664C142.725 6.33271 145.482 9.27556 147.866 13.0752C150.25 16.8003 152.075 21.1587 153.342 26.1504C154.683 31.142 155.353 36.5435 155.353 42.3547C155.353 48.1659 154.683 53.6046 153.342 58.6707C152.075 63.6624 150.25 68.0208 147.866 71.7459C145.482 75.471 142.725 78.4139 139.596 80.5745C136.542 82.6605 133.226 83.7036 129.65 83.7036ZM129.65 80.6862C134.94 80.6862 139.075 77.5199 142.055 71.1871C145.035 64.8544 146.525 55.2436 146.525 42.3547C146.525 29.4657 145.035 19.8922 142.055 13.634C139.075 7.30125 134.94 4.13489 129.65 4.13489C124.435 4.13489 120.3 7.30125 117.245 13.634C114.265 19.8922 112.775 29.4657 112.775 42.3547C112.775 55.2436 114.265 64.8544 117.245 71.1871C120.3 77.5199 124.435 80.6862 129.65 80.6862Z" fill="#5F4073"/>
<path d="M192.237 83.7036C188.66 83.7036 185.308 82.6605 182.179 80.5745C179.05 78.4139 176.293 75.471 173.909 71.7459C171.599 68.0208 169.774 63.6624 168.433 58.6707C167.166 53.6046 166.533 48.1659 166.533 42.3547C166.533 36.5435 167.166 31.142 168.433 26.1504C169.774 21.1587 171.599 16.8003 173.909 13.0752C176.293 9.27556 179.05 6.33271 182.179 4.24664C185.308 2.16057 188.66 1.11754 192.237 1.11754C195.813 1.11754 199.128 2.16057 202.183 4.24664C205.312 6.33271 208.068 9.27556 210.452 13.0752C212.836 16.8003 214.662 21.1587 215.928 26.1504C217.269 31.142 217.94 36.5435 217.94 42.3547C217.94 48.1659 217.269 53.6046 215.928 58.6707C214.662 63.6624 212.836 68.0208 210.452 71.7459C208.068 75.471 205.312 78.4139 202.183 80.5745C199.128 82.6605 195.813 83.7036 192.237 83.7036ZM192.237 80.6862C197.526 80.6862 201.661 77.5199 204.641 71.1871C207.621 64.8544 209.111 55.2436 209.111 42.3547C209.111 29.4657 207.621 19.8922 204.641 13.634C201.661 7.30125 197.526 4.13489 192.237 4.13489C187.021 4.13489 182.886 7.30125 179.832 13.634C176.852 19.8922 175.362 29.4657 175.362 42.3547C175.362 55.2436 176.852 64.8544 179.832 71.1871C182.886 77.5199 187.021 80.6862 192.237 80.6862Z" fill="#5F4073"/>
<path d="M259.852 81.5802C259.554 81.5802 259.219 81.4685 258.846 81.245C258.474 81.0215 258.213 80.5372 258.064 79.7922L241.189 11.2871C241.115 10.7656 240.891 10.5421 240.519 10.6166C240.146 10.6166 239.96 10.8774 239.96 11.3989L237.725 73.087C237.65 75.173 237.985 76.7748 238.73 77.8924C239.476 78.9354 240.779 79.6059 242.642 79.9039L244.095 80.1274C245.063 80.202 245.547 80.649 245.547 81.4685C245.547 82.288 244.989 82.6978 243.871 82.6978H227.89C226.773 82.6978 226.214 82.288 226.214 81.4685C226.214 80.649 226.698 80.202 227.667 80.1274L229.12 79.9039C231.057 79.6059 232.361 78.9354 233.031 77.8924C233.776 76.7748 234.186 75.173 234.26 73.087L236.495 9.61082C236.57 8.04627 236.346 7.00323 235.825 6.48171C235.303 5.9602 234.186 5.55044 232.472 5.25243L229.902 4.80541C228.933 4.5819 228.449 4.13488 228.449 3.46436C228.449 2.64484 229.008 2.23507 230.125 2.23507H243.536C245.845 2.23507 247.261 3.35261 247.783 5.58768L261.305 61.3528C261.454 61.8743 261.677 62.1351 261.975 62.1351C262.348 62.1351 262.571 61.8743 262.646 61.3528L276.727 5.02891C277.174 3.16635 278.366 2.23507 280.303 2.23507H293.49C294.607 2.23507 295.166 2.64484 295.166 3.46436C295.166 4.13488 294.682 4.5819 293.713 4.80541L291.143 5.25243C289.578 5.55044 288.535 5.9602 288.014 6.48171C287.492 7.00323 287.269 8.04627 287.343 9.61082L289.578 75.322C289.653 76.8866 289.914 77.9296 290.361 78.4511C290.808 78.9727 291.814 79.3824 293.378 79.6804L295.948 80.1274C296.917 80.351 297.401 80.798 297.401 81.4685C297.401 82.288 296.842 82.6978 295.725 82.6978H275.497C274.38 82.6978 273.821 82.288 273.821 81.4685C273.821 80.798 274.305 80.351 275.274 80.1274L277.844 79.6804C279.409 79.3824 280.452 78.9727 280.973 78.4511C281.495 77.9296 281.718 76.8866 281.644 75.322L279.744 11.3989C279.744 10.8774 279.558 10.6166 279.185 10.6166C278.887 10.5421 278.664 10.7284 278.515 11.1754L261.528 79.7922C261.379 80.5372 261.118 81.0215 260.746 81.245C260.448 81.4685 260.15 81.5802 259.852 81.5802Z" fill="#5F4073"/>
<path d="M321.571 83.7036C317.994 83.7036 314.791 82.5115 311.96 80.1274C309.129 77.7434 306.856 74.3907 305.143 70.0696C303.504 65.674 302.684 60.6078 302.684 54.8711C302.684 48.9854 303.541 43.8075 305.255 39.3373C306.968 34.8672 309.315 31.3656 312.295 28.8325C315.275 26.2994 318.59 25.0328 322.241 25.0328C326.637 25.0328 330.176 26.8582 332.858 30.5088C335.614 34.0849 336.993 39.9333 336.993 48.0541C336.993 50.5127 336.061 51.742 334.199 51.742H312.966C311.475 51.742 310.73 52.5988 310.73 54.3123C310.73 62.2096 311.885 68.1325 314.195 72.0812C316.504 76.0298 319.447 78.0041 323.023 78.0041C325.854 78.0041 328.164 76.9983 329.952 74.9868C331.74 72.9752 333.193 69.5853 334.31 64.8172C334.534 63.9976 335.018 63.5879 335.763 63.5879C336.657 63.5879 336.993 64.3329 336.769 65.823C335.577 72.4537 333.677 77.1101 331.07 79.7922C328.462 82.3998 325.296 83.7036 321.571 83.7036ZM312.63 48.9481H323.917C327.494 48.9481 329.282 47.0856 329.282 43.3605C329.282 38.5178 328.686 34.7182 327.494 31.9616C326.301 29.205 324.513 27.8267 322.129 27.8267C319.224 27.8267 316.765 29.503 314.754 32.8556C312.817 36.2082 311.55 40.9764 310.954 47.1601C310.805 48.3521 311.364 48.9481 312.63 48.9481ZM311.401 17.2101C310.134 17.7316 309.278 17.5826 308.831 16.7631C308.309 15.9435 308.644 15.124 309.836 14.3045L325.929 1.78806C326.674 1.19204 327.382 0.74502 328.052 0.447009C328.723 0.149003 329.542 0 330.511 0C331.852 0 332.895 0.409763 333.64 1.22929C334.385 1.97431 334.758 2.79384 334.758 3.68787C334.758 4.65641 334.497 5.51319 333.975 6.25821C333.528 6.92873 332.634 7.562 331.293 8.15802L311.401 17.2101Z" fill="#5F4073"/>
<path d="M1.67631 82.6978C0.558769 82.6978 0 82.288 0 81.4685C0 80.798 0.484266 80.351 1.4528 80.1274L4.02314 79.6804C5.58769 79.3824 6.59347 78.9727 7.04049 78.4511C7.562 77.9296 7.82276 76.8866 7.82276 75.322V9.61082C7.82276 8.04627 7.562 7.00323 7.04049 6.48171C6.59347 5.9602 5.58769 5.55044 4.02314 5.25243L1.4528 4.80541C0.484266 4.5819 0 4.13488 0 3.46436C0 2.64484 0.558769 2.23507 1.67631 2.23507H24.3623C28.0874 2.23507 31.4028 3.01735 34.3084 4.5819C37.214 6.14645 39.4863 8.26978 41.1254 10.9519C42.8389 13.634 43.6957 16.6886 43.6957 20.1157C43.6957 23.4683 42.6899 26.5974 40.6784 29.503C38.7413 32.3341 35.9102 34.7182 32.1851 36.6552C31.7381 36.8787 31.5146 37.1768 31.5146 37.5493C31.5146 37.9218 31.7753 38.1825 32.2968 38.3315C37.363 40.0451 41.2744 42.8017 44.031 46.6013C46.7876 50.3264 48.1659 54.7593 48.1659 59.9C48.1659 64.2957 47.1601 68.2443 45.1485 71.7459C43.137 75.173 40.3431 77.8551 36.767 79.7922C33.2654 81.7292 29.2795 82.6978 24.8093 82.6978H1.67631ZM21.6802 36.767C25.6289 36.767 28.907 35.2397 31.5146 32.1851C34.1967 29.056 35.5377 25.1818 35.5377 20.5627C35.5377 15.9435 34.2712 12.2184 31.7381 9.38731C29.205 6.48171 25.8524 5.02891 21.6802 5.02891C17.7316 5.02891 15.7573 6.51897 15.7573 9.49907V30.6205C15.7573 32.7811 16.2043 34.3457 17.0983 35.3142C18.0669 36.2827 19.5942 36.767 21.6802 36.767ZM23.3565 79.9039C28.1992 79.9039 32.1478 78.0786 35.2024 74.428C38.257 70.7029 39.7843 65.7485 39.7843 59.5648C39.7843 53.381 38.2198 48.5011 35.0907 44.925C32.0361 41.3489 27.9012 39.5608 22.686 39.5608C18.0669 39.5608 15.7573 41.3861 15.7573 45.0368V72.1929C15.7573 77.3336 18.2904 79.9039 23.3565 79.9039Z" stroke="#5F4073"/>
<path d="M56.4051 82.6978C55.2876 82.6978 54.7288 82.288 54.7288 81.4685C54.7288 80.798 55.2131 80.351 56.1816 80.1274L58.7519 79.6804C60.3165 79.3824 61.3223 78.9727 61.7693 78.4511C62.2908 77.9296 62.5516 76.8866 62.5516 75.322V9.61082C62.5516 8.04627 62.2908 7.00323 61.7693 6.48171C61.3223 5.9602 60.3165 5.55044 58.7519 5.25243L56.1816 4.80541C55.2131 4.5819 54.7288 4.13488 54.7288 3.46436C54.7288 2.64484 55.2876 2.23507 56.4051 2.23507H76.856C77.9736 2.23507 78.5323 2.68209 78.5323 3.57612C78.5323 4.24664 78.1226 4.6564 77.303 4.80541L74.2857 5.25243C72.7211 5.47593 71.6781 5.88569 71.1566 6.48171C70.7096 7.07774 70.4861 8.15802 70.4861 9.72257V72.3047C70.4861 74.9868 71.2311 76.9238 72.7211 78.1159C74.2857 79.3079 76.2228 79.9039 78.5323 79.9039C80.2459 79.9039 81.9967 79.5687 83.7848 78.8982C85.6473 78.1531 87.3236 76.8121 88.8137 74.875C90.3037 72.8635 91.4213 69.9579 92.1663 66.1582L93.6191 58.6707C93.8426 57.7022 94.4014 57.2179 95.2954 57.2179C96.3384 57.2179 96.7855 57.8512 96.6365 59.1177L95.2954 80.1274C95.1464 81.841 94.2151 82.6978 92.5016 82.6978H56.4051Z" stroke="#5F4073"/>
<path d="M129.65 83.7036C126.074 83.7036 122.721 82.6605 119.592 80.5745C116.463 78.4139 113.707 75.471 111.322 71.7459C109.013 68.0208 107.188 63.6624 105.847 58.6707C104.58 53.6046 103.947 48.1659 103.947 42.3547C103.947 36.5435 104.58 31.142 105.847 26.1504C107.188 21.1587 109.013 16.8003 111.322 13.0752C113.707 9.27556 116.463 6.33271 119.592 4.24664C122.721 2.16057 126.074 1.11754 129.65 1.11754C133.226 1.11754 136.542 2.16057 139.596 4.24664C142.725 6.33271 145.482 9.27556 147.866 13.0752C150.25 16.8003 152.075 21.1587 153.342 26.1504C154.683 31.142 155.353 36.5435 155.353 42.3547C155.353 48.1659 154.683 53.6046 153.342 58.6707C152.075 63.6624 150.25 68.0208 147.866 71.7459C145.482 75.471 142.725 78.4139 139.596 80.5745C136.542 82.6605 133.226 83.7036 129.65 83.7036ZM129.65 80.6862C134.94 80.6862 139.075 77.5199 142.055 71.1871C145.035 64.8544 146.525 55.2436 146.525 42.3547C146.525 29.4657 145.035 19.8922 142.055 13.634C139.075 7.30125 134.94 4.13489 129.65 4.13489C124.435 4.13489 120.3 7.30125 117.245 13.634C114.265 19.8922 112.775 29.4657 112.775 42.3547C112.775 55.2436 114.265 64.8544 117.245 71.1871C120.3 77.5199 124.435 80.6862 129.65 80.6862Z" stroke="#5F4073"/>
<path d="M192.237 83.7036C188.66 83.7036 185.308 82.6605 182.179 80.5745C179.05 78.4139 176.293 75.471 173.909 71.7459C171.599 68.0208 169.774 63.6624 168.433 58.6707C167.166 53.6046 166.533 48.1659 166.533 42.3547C166.533 36.5435 167.166 31.142 168.433 26.1504C169.774 21.1587 171.599 16.8003 173.909 13.0752C176.293 9.27556 179.05 6.33271 182.179 4.24664C185.308 2.16057 188.66 1.11754 192.237 1.11754C195.813 1.11754 199.128 2.16057 202.183 4.24664C205.312 6.33271 208.068 9.27556 210.452 13.0752C212.836 16.8003 214.662 21.1587 215.928 26.1504C217.269 31.142 217.94 36.5435 217.94 42.3547C217.94 48.1659 217.269 53.6046 215.928 58.6707C214.662 63.6624 212.836 68.0208 210.452 71.7459C208.068 75.471 205.312 78.4139 202.183 80.5745C199.128 82.6605 195.813 83.7036 192.237 83.7036ZM192.237 80.6862C197.526 80.6862 201.661 77.5199 204.641 71.1871C207.621 64.8544 209.111 55.2436 209.111 42.3547C209.111 29.4657 207.621 19.8922 204.641 13.634C201.661 7.30125 197.526 4.13489 192.237 4.13489C187.021 4.13489 182.886 7.30125 179.832 13.634C176.852 19.8922 175.362 29.4657 175.362 42.3547C175.362 55.2436 176.852 64.8544 179.832 71.1871C182.886 77.5199 187.021 80.6862 192.237 80.6862Z" stroke="#5F4073"/>
<path d="M259.852 81.5802C259.554 81.5802 259.219 81.4685 258.846 81.245C258.474 81.0215 258.213 80.5372 258.064 79.7922L241.189 11.2871C241.115 10.7656 240.891 10.5421 240.519 10.6166C240.146 10.6166 239.96 10.8774 239.96 11.3989L237.725 73.087C237.65 75.173 237.985 76.7748 238.73 77.8924C239.476 78.9354 240.779 79.6059 242.642 79.9039L244.095 80.1274C245.063 80.202 245.547 80.649 245.547 81.4685C245.547 82.288 244.989 82.6978 243.871 82.6978H227.89C226.773 82.6978 226.214 82.288 226.214 81.4685C226.214 80.649 226.698 80.202 227.667 80.1274L229.12 79.9039C231.057 79.6059 232.361 78.9354 233.031 77.8924C233.776 76.7748 234.186 75.173 234.26 73.087L236.495 9.61082C236.57 8.04627 236.346 7.00323 235.825 6.48171C235.303 5.9602 234.186 5.55044 232.472 5.25243L229.902 4.80541C228.933 4.5819 228.449 4.13488 228.449 3.46436C228.449 2.64484 229.008 2.23507 230.125 2.23507H243.536C245.845 2.23507 247.261 3.35261 247.783 5.58768L261.305 61.3528C261.454 61.8743 261.677 62.1351 261.975 62.1351C262.348 62.1351 262.571 61.8743 262.646 61.3528L276.727 5.02891C277.174 3.16635 278.366 2.23507 280.303 2.23507H293.49C294.607 2.23507 295.166 2.64484 295.166 3.46436C295.166 4.13488 294.682 4.5819 293.713 4.80541L291.143 5.25243C289.578 5.55044 288.535 5.9602 288.014 6.48171C287.492 7.00323 287.269 8.04627 287.343 9.61082L289.578 75.322C289.653 76.8866 289.914 77.9296 290.361 78.4511C290.808 78.9727 291.814 79.3824 293.378 79.6804L295.948 80.1274C296.917 80.351 297.401 80.798 297.401 81.4685C297.401 82.288 296.842 82.6978 295.725 82.6978H275.497C274.38 82.6978 273.821 82.288 273.821 81.4685C273.821 80.798 274.305 80.351 275.274 80.1274L277.844 79.6804C279.409 79.3824 280.452 78.9727 280.973 78.4511C281.495 77.9296 281.718 76.8866 281.644 75.322L279.744 11.3989C279.744 10.8774 279.558 10.6166 279.185 10.6166C278.887 10.5421 278.664 10.7284 278.515 11.1754L261.528 79.7922C261.379 80.5372 261.118 81.0215 260.746 81.245C260.448 81.4685 260.15 81.5802 259.852 81.5802Z" stroke="#5F4073"/>
<path d="M321.571 83.7036C317.994 83.7036 314.791 82.5115 311.96 80.1274C309.129 77.7434 306.856 74.3907 305.143 70.0696C303.504 65.674 302.684 60.6078 302.684 54.8711C302.684 48.9854 303.541 43.8075 305.255 39.3373C306.968 34.8672 309.315 31.3656 312.295 28.8325C315.275 26.2994 318.59 25.0328 322.241 25.0328C326.637 25.0328 330.176 26.8582 332.858 30.5088C335.614 34.0849 336.993 39.9333 336.993 48.0541C336.993 50.5127 336.061 51.742 334.199 51.742H312.966C311.475 51.742 310.73 52.5988 310.73 54.3123C310.73 62.2096 311.885 68.1325 314.195 72.0812C316.504 76.0298 319.447 78.0041 323.023 78.0041C325.854 78.0041 328.164 76.9983 329.952 74.9868C331.74 72.9752 333.193 69.5853 334.31 64.8172C334.534 63.9976 335.018 63.5879 335.763 63.5879C336.657 63.5879 336.993 64.3329 336.769 65.823C335.577 72.4537 333.677 77.1101 331.07 79.7922C328.462 82.3998 325.296 83.7036 321.571 83.7036ZM312.63 48.9481H323.917C327.494 48.9481 329.282 47.0856 329.282 43.3605C329.282 38.5178 328.686 34.7182 327.494 31.9616C326.301 29.205 324.513 27.8267 322.129 27.8267C319.224 27.8267 316.765 29.503 314.754 32.8556C312.817 36.2082 311.55 40.9764 310.954 47.1601C310.805 48.3521 311.364 48.9481 312.63 48.9481ZM311.401 17.2101C310.134 17.7316 309.278 17.5826 308.831 16.7631C308.309 15.9435 308.644 15.124 309.836 14.3045L325.929 1.78806C326.674 1.19204 327.382 0.74502 328.052 0.447009C328.723 0.149003 329.542 0 330.511 0C331.852 0 332.895 0.409763 333.64 1.22929C334.385 1.97431 334.758 2.79384 334.758 3.68787C334.758 4.65641 334.497 5.51319 333.975 6.25821C333.528 6.92873 332.634 7.562 331.293 8.15802L311.401 17.2101Z" stroke="#5F4073"/>
<path d="M9.09396 123.5C6.83095 123.5 5.02892 122.969 3.68787 121.907C2.37477 120.818 1.42486 119.17 0.838153 116.962C0.279384 114.755 0 111.961 0 108.581C0 103.468 0.754338 99.7104 2.26301 97.3077C3.79963 94.905 6.30012 93.7036 9.76449 93.7036C11.6364 93.7036 13.1869 94.0948 14.4162 94.877C15.6455 95.6593 16.5815 96.9026 17.2241 98.6068C17.8666 100.283 18.1879 102.476 18.1879 105.186H13.4943C13.4943 103.622 13.3685 102.295 13.1171 101.205C12.8657 100.115 12.4466 99.2913 11.8599 98.7325C11.3011 98.1738 10.5188 97.8944 9.51304 97.8944C8.47932 97.8944 7.62719 98.2157 6.95667 98.8583C6.28615 99.4729 5.78326 100.451 5.448 101.792C5.11274 103.105 4.9451 104.823 4.9451 106.946V110.383C4.9451 112.478 5.09877 114.182 5.40609 115.496C5.74135 116.809 6.23027 117.773 6.87286 118.387C7.51544 119.002 8.35359 119.309 9.38732 119.309C10.3652 119.309 11.1614 119.044 11.7761 118.513C12.3907 117.982 12.8377 117.186 13.1171 116.124C13.4244 115.063 13.5781 113.722 13.5781 112.101H18.146C18.146 114.783 17.7828 116.962 17.0564 118.639C16.358 120.315 15.3382 121.544 13.9972 122.327C12.6841 123.109 11.0497 123.5 9.09396 123.5Z" fill="#5F4073"/>
<path d="M46.1423 123.5C43.991 123.5 42.189 122.983 40.7362 121.949C39.3114 120.888 38.2218 119.267 37.4674 117.088C36.741 114.881 36.3778 112.059 36.3778 108.623C36.3778 105.186 36.741 102.379 37.4674 100.199C38.2218 97.9922 39.3114 96.3578 40.7362 95.2961C42.189 94.2344 43.991 93.7036 46.1423 93.7036C48.2936 93.7036 50.0956 94.2344 51.5484 95.2961C53.0012 96.3578 54.0768 97.9922 54.7753 100.199C55.5017 102.379 55.8649 105.186 55.8649 108.623C55.8649 112.059 55.5017 114.881 54.7753 117.088C54.0768 119.267 53.0012 120.888 51.5484 121.949C50.0956 122.983 48.2936 123.5 46.1423 123.5ZM46.1423 119.309C46.9805 119.309 47.6929 119.128 48.2796 118.764C48.8663 118.373 49.3552 117.801 49.7464 117.046C50.1654 116.292 50.4588 115.356 50.6264 114.238C50.822 113.121 50.9198 111.808 50.9198 110.299V106.863C50.9198 105.354 50.822 104.041 50.6264 102.923C50.4588 101.806 50.1654 100.884 49.7464 100.157C49.3552 99.4031 48.8663 98.8443 48.2796 98.4811C47.6929 98.0899 46.9805 97.8944 46.1423 97.8944C45.3042 97.8944 44.5778 98.0899 43.9631 98.4811C43.3764 98.8443 42.8875 99.4031 42.4963 100.157C42.1052 100.884 41.8118 101.806 41.6163 102.923C41.4207 104.041 41.3229 105.354 41.3229 106.863V110.299C41.3229 111.808 41.4207 113.121 41.6163 114.238C41.8118 115.356 42.1052 116.292 42.4963 117.046C42.8875 117.801 43.3764 118.373 43.9631 118.764C44.5778 119.128 45.3042 119.309 46.1423 119.309Z" fill="#5F4073"/>
<path d="M82.0657 123.5C80.8923 123.5 79.8027 123.374 78.7969 123.123C77.819 122.871 76.9529 122.424 76.1986 121.782C75.4722 121.139 74.8995 120.259 74.4804 119.142C74.0893 117.996 73.8937 116.543 73.8937 114.783C73.8937 114.643 73.8937 114.504 73.8937 114.364C73.8937 114.224 73.8937 114.099 73.8937 113.987H78.6293C78.6293 114.127 78.6293 114.266 78.6293 114.406C78.6293 114.546 78.6293 114.685 78.6293 114.825C78.6293 115.943 78.741 116.837 78.9645 117.507C79.188 118.15 79.5373 118.611 80.0122 118.89C80.5151 119.17 81.1717 119.309 81.9819 119.309C82.4289 119.309 82.82 119.267 83.1553 119.183C83.5185 119.072 83.8398 118.904 84.1192 118.681C84.3985 118.457 84.6221 118.192 84.7897 117.884C84.9853 117.549 85.1249 117.158 85.2088 116.711C85.3205 116.264 85.3764 115.747 85.3764 115.16C85.3764 114.378 85.2088 113.722 84.8735 113.191C84.5662 112.632 84.1471 112.171 83.6163 111.808C83.0854 111.417 82.4987 111.067 81.8561 110.76C81.2136 110.453 80.5291 110.145 79.8027 109.838C79.1042 109.503 78.4337 109.126 77.7911 108.707C77.1485 108.287 76.5618 107.785 76.031 107.198C75.5002 106.583 75.0671 105.857 74.7318 105.019C74.4245 104.153 74.2709 103.105 74.2709 101.876C74.2709 100.423 74.4804 99.1795 74.8995 98.1458C75.3465 97.1121 75.9332 96.274 76.6596 95.6314C77.386 94.9608 78.2102 94.4719 79.1321 94.1646C80.0821 93.8573 81.0878 93.7036 82.1495 93.7036C83.295 93.7036 84.3287 93.8433 85.2507 94.1227C86.2006 94.4021 87.0108 94.8491 87.6813 95.4637C88.3518 96.0784 88.8687 96.8886 89.2319 97.8944C89.623 98.9002 89.8186 100.129 89.8186 101.582V102.462H85.1669V101.792C85.1669 100.954 85.0691 100.255 84.8735 99.6964C84.7059 99.1097 84.4125 98.6627 83.9934 98.3554C83.5744 98.048 82.9737 97.8944 82.1914 97.8944C81.6326 97.8944 81.1297 98.0061 80.6827 98.2296C80.2357 98.4532 79.8865 98.8164 79.635 99.3192C79.3836 99.8221 79.2579 100.493 79.2579 101.331C79.2579 102.141 79.4115 102.826 79.7189 103.384C80.0262 103.915 80.4453 104.376 80.9761 104.767C81.5069 105.13 82.0936 105.466 82.7362 105.773C83.3788 106.08 84.0493 106.388 84.7478 106.695C85.4742 107.002 86.1587 107.366 86.8013 107.785C87.4438 108.204 88.0305 108.721 88.5614 109.335C89.1201 109.922 89.5532 110.648 89.8605 111.514C90.1678 112.38 90.3215 113.428 90.3215 114.657C90.3215 116.725 89.9723 118.415 89.2738 119.728C88.6033 121.013 87.6534 121.963 86.4241 122.578C85.1948 123.193 83.742 123.5 82.0657 123.5Z" fill="#5F4073"/>
<path d="M108.989 122.997V94.2065H115.988L119.299 110.383C119.355 110.69 119.438 111.123 119.55 111.682C119.662 112.241 119.774 112.827 119.885 113.442C119.997 114.029 120.095 114.574 120.179 115.077H120.43C120.486 114.741 120.556 114.322 120.64 113.819C120.751 113.288 120.863 112.73 120.975 112.143C121.087 111.556 121.185 110.984 121.268 110.425L124.621 94.2065H131.536V122.997H126.842V105.27C126.842 104.907 126.842 104.502 126.842 104.055C126.87 103.58 126.898 103.119 126.926 102.672C126.954 102.225 126.968 101.848 126.968 101.54H126.716C126.688 101.82 126.633 102.169 126.549 102.588C126.465 103.007 126.381 103.454 126.297 103.929C126.213 104.376 126.116 104.809 126.004 105.228L122.148 122.997H118.251L114.437 105.228C114.382 104.977 114.312 104.642 114.228 104.222C114.144 103.775 114.06 103.314 113.976 102.839C113.893 102.365 113.809 101.931 113.725 101.54H113.474C113.501 101.904 113.515 102.309 113.515 102.756C113.515 103.203 113.529 103.65 113.557 104.097C113.585 104.544 113.599 104.935 113.599 105.27V122.997H108.989Z" fill="#5F4073"/>
<path d="M151.545 122.997V94.2065H166.799V98.3973H156.448V106.234H165.375V110.467H156.448V118.806H166.967V122.997H151.545Z" fill="#5F4073"/>
<path d="M190.282 122.997V98.4392H184.038V94.2065H201.345V98.4392H195.143V122.997H190.282Z" fill="#5F4073"/>
<path d="M219.594 122.997V94.2065H224.497V122.997H219.594Z" fill="#5F4073"/>
<path d="M252.689 123.5C250.426 123.5 248.624 122.969 247.283 121.907C245.97 120.818 245.02 119.17 244.433 116.962C243.874 114.755 243.595 111.961 243.595 108.581C243.595 103.468 244.349 99.7104 245.858 97.3077C247.394 94.905 249.895 93.7036 253.359 93.7036C255.231 93.7036 256.782 94.0948 258.011 94.877C259.24 95.6593 260.176 96.9026 260.819 98.6068C261.461 100.283 261.783 102.476 261.783 105.186H257.089C257.089 103.622 256.963 102.295 256.712 101.205C256.46 100.115 256.041 99.2913 255.455 98.7325C254.896 98.1738 254.114 97.8944 253.108 97.8944C252.074 97.8944 251.222 98.2157 250.552 98.8583C249.881 99.4729 249.378 100.451 249.043 101.792C248.708 103.105 248.54 104.823 248.54 106.946V110.383C248.54 112.478 248.694 114.182 249.001 115.496C249.336 116.809 249.825 117.773 250.468 118.387C251.11 119.002 251.948 119.309 252.982 119.309C253.96 119.309 254.756 119.044 255.371 118.513C255.986 117.982 256.433 117.186 256.712 116.124C257.019 115.063 257.173 113.722 257.173 112.101H261.741C261.741 114.783 261.378 116.962 260.651 118.639C259.953 120.315 258.933 121.544 257.592 122.327C256.279 123.109 254.645 123.5 252.689 123.5Z" fill="#5F4073"/>
<path d="M287.809 123.5C286.636 123.5 285.546 123.374 284.541 123.123C283.563 122.871 282.697 122.424 281.942 121.782C281.216 121.139 280.643 120.259 280.224 119.142C279.833 117.996 279.637 116.543 279.637 114.783C279.637 114.643 279.637 114.504 279.637 114.364C279.637 114.224 279.637 114.099 279.637 113.987H284.373C284.373 114.127 284.373 114.266 284.373 114.406C284.373 114.546 284.373 114.685 284.373 114.825C284.373 115.943 284.485 116.837 284.708 117.507C284.932 118.15 285.281 118.611 285.756 118.89C286.259 119.17 286.915 119.309 287.726 119.309C288.173 119.309 288.564 119.267 288.899 119.183C289.262 119.072 289.583 118.904 289.863 118.681C290.142 118.457 290.366 118.192 290.533 117.884C290.729 117.549 290.869 117.158 290.952 116.711C291.064 116.264 291.12 115.747 291.12 115.16C291.12 114.378 290.952 113.722 290.617 113.191C290.31 112.632 289.891 112.171 289.36 111.808C288.829 111.417 288.242 111.067 287.6 110.76C286.957 110.453 286.273 110.145 285.546 109.838C284.848 109.503 284.177 109.126 283.535 108.707C282.892 108.287 282.306 107.785 281.775 107.198C281.244 106.583 280.811 105.857 280.476 105.019C280.168 104.153 280.015 103.105 280.015 101.876C280.015 100.423 280.224 99.1795 280.643 98.1458C281.09 97.1121 281.677 96.274 282.403 95.6314C283.13 94.9608 283.954 94.4719 284.876 94.1646C285.826 93.8573 286.832 93.7036 287.893 93.7036C289.039 93.7036 290.072 93.8433 290.994 94.1227C291.944 94.4021 292.755 94.8491 293.425 95.4637C294.096 96.0784 294.612 96.8886 294.976 97.8944C295.367 98.9002 295.562 100.129 295.562 101.582V102.462H290.911V101.792C290.911 100.954 290.813 100.255 290.617 99.6964C290.45 99.1097 290.156 98.6627 289.737 98.3554C289.318 98.048 288.717 97.8944 287.935 97.8944C287.376 97.8944 286.873 98.0061 286.426 98.2296C285.979 98.4532 285.63 98.8164 285.379 99.3192C285.127 99.8221 285.002 100.493 285.002 101.331C285.002 102.141 285.155 102.826 285.463 103.384C285.77 103.915 286.189 104.376 286.72 104.767C287.251 105.13 287.837 105.466 288.48 105.773C289.123 106.08 289.793 106.388 290.491 106.695C291.218 107.002 291.902 107.366 292.545 107.785C293.188 108.204 293.774 108.721 294.305 109.335C294.864 109.922 295.297 110.648 295.604 111.514C295.912 112.38 296.065 113.428 296.065 114.657C296.065 116.725 295.716 118.415 295.018 119.728C294.347 121.013 293.397 121.963 292.168 122.578C290.938 123.193 289.486 123.5 287.809 123.5Z" fill="#5F4073"/>
</svg>
