<svg width="100" height="100" viewBox="0 0 100 100" fill="none" xmlns="http://www.w3.org/2000/svg">
<path d="M93.8014 49.9999L99.3281 40.4485C99.9923 39.2993 100.173 37.9334 99.8303 36.651C99.4877 35.3687 98.6498 34.2749 97.5009 33.6102L87.9393 28.0836V17.0704C87.9393 15.7427 87.4119 14.4694 86.4731 13.5306C85.5343 12.5918 84.261 12.0644 82.9333 12.0644H71.925L66.4034 2.50788C65.7398 1.35815 64.6468 0.519035 63.3647 0.175073C62.7295 0.00487617 62.067 -0.0385137 61.4151 0.047381C60.7632 0.133276 60.1345 0.346773 59.5651 0.675675L50.0036 6.20231L40.4421 0.670668C39.2923 0.00685912 37.9259 -0.17303 36.6435 0.170572C35.3611 0.514174 34.2677 1.35312 33.6038 2.50287L28.0771 12.0644H17.0689C15.7412 12.0644 14.4679 12.5918 13.5291 13.5306C12.5902 14.4694 12.0628 15.7427 12.0628 17.0704V28.0786L2.50129 33.6052C1.93174 33.9344 1.43265 34.3725 1.03253 34.8946C0.632421 35.4168 0.339135 36.0126 0.16944 36.6482C-0.00025398 37.2837 -0.0430287 37.9465 0.043561 38.5985C0.130151 39.2506 0.344406 39.8792 0.674082 40.4485L6.20075 49.9999L0.674082 59.5514C0.0132284 60.7017 -0.166072 62.0665 0.175272 63.3484C0.516616 64.6303 1.35092 65.7253 2.49628 66.3946L12.0578 71.9213V82.9295C12.0578 84.2572 12.5852 85.5305 13.524 86.4693C14.4629 87.4081 15.7362 87.9355 17.0639 87.9355H28.0771L33.6038 97.497C34.047 98.2546 34.6798 98.8838 35.4399 99.3227C36.2 99.7615 37.0613 99.995 37.939 100C38.8101 100 39.6761 99.7697 40.4471 99.3242L49.9986 93.7975L59.5601 99.3242C60.7093 99.9884 62.0752 100.169 63.3576 99.8264C64.6399 99.4838 65.7337 98.6459 66.3984 97.497L71.92 87.9355H82.9283C84.256 87.9355 85.5293 87.4081 86.4681 86.4693C87.4069 85.5305 87.9343 84.2572 87.9343 82.9295V71.9213L97.4959 66.3946C98.0654 66.0655 98.5645 65.6273 98.9646 65.1052C99.3647 64.5831 99.658 63.9872 99.8277 63.3517C99.9974 62.7162 100.04 62.0534 99.9536 61.4013C99.867 60.7492 99.6527 60.1206 99.3231 59.5514L93.8014 49.9999ZM37.4835 24.9198C39.4757 24.9205 41.386 25.7125 42.7942 27.1216C44.2024 28.5308 44.9932 30.4416 44.9925 32.4338C44.9919 34.426 44.1998 36.3363 42.7907 37.7445C41.3815 39.1528 39.4707 39.9435 37.4785 39.9428C35.4863 39.9422 33.576 39.1502 32.1677 37.741C30.7595 36.3318 29.9688 34.421 29.9694 32.4288C29.9701 30.4366 30.7621 28.5263 32.1713 27.1181C33.5804 25.7099 35.4913 24.9191 37.4835 24.9198ZM38.9853 72.9775L30.9756 66.9753L61.0119 26.9272L69.0215 32.9294L38.9853 72.9775ZM62.5137 74.9799C61.5272 74.9796 60.5505 74.785 59.6393 74.4072C58.7281 74.0294 57.9002 73.4758 57.2029 72.7781C56.5056 72.0803 55.9526 71.2521 55.5754 70.3406C55.1983 69.4292 55.0043 68.4523 55.0046 67.4659C55.0049 66.4795 55.1996 65.5028 55.5774 64.5916C55.9552 63.6804 56.5087 62.8525 57.2065 62.1552C57.9042 61.4579 58.7325 60.9049 59.6439 60.5277C60.5554 60.1505 61.5322 59.9566 62.5187 59.9569C64.5109 59.9576 66.4212 60.7496 67.8294 62.1587C69.2376 63.5679 70.0284 65.4787 70.0277 67.4709C70.0271 69.4631 69.235 71.3734 67.8259 72.7816C66.4167 74.1898 64.5059 74.9806 62.5137 74.9799Z" fill="#5F4073"/>
</svg>
