<svg width="100" height="100" viewBox="0 0 100 100" fill="none" xmlns="http://www.w3.org/2000/svg">
<path d="M49.9975 83.7749L25.7605 99.0623C24.6898 99.7757 23.5705 100.081 22.4024 99.9795C21.2344 99.8776 20.2123 99.47 19.3363 98.7566C18.4603 98.0431 17.7789 97.1524 17.2922 96.0843C16.8055 95.0162 16.7082 93.8177 17.0002 92.4887L23.4244 63.5956L1.96159 44.1806C0.988221 43.2633 0.380837 42.2177 0.13944 41.0436C-0.101956 39.8695 -0.0299269 38.724 0.355528 37.607C0.740984 36.49 1.32501 35.5727 2.1076 34.8553C2.89019 34.1378 3.9609 33.6791 5.31973 33.4794L33.6449 30.8805L44.5953 3.66898C45.082 2.44598 45.8373 1.52874 46.8613 0.917243C47.8853 0.305747 48.9307 0 49.9975 0C51.0643 0 52.1097 0.305747 53.1337 0.917243C54.1577 1.52874 54.913 2.44598 55.3997 3.66898L66.3502 30.8805L94.6753 33.4794C96.038 33.6832 97.1087 34.1418 97.8874 34.8553C98.6661 35.5687 99.2501 36.4859 99.6395 37.607C100.029 38.7281 100.103 39.8756 99.8614 41.0497C99.62 42.2238 99.0107 43.2674 98.0334 44.1806L76.5706 63.5956L82.9948 92.4887C83.2868 93.8136 83.1895 95.0122 82.7028 96.0843C82.2161 97.1565 81.5348 98.0472 80.6587 98.7566C79.7827 99.4659 78.7607 99.8735 77.5926 99.9795C76.4246 100.086 75.3052 99.7798 74.2345 99.0623L49.9975 83.7749Z" fill="#5F4073"/>
</svg>
