<svg width="78" height="100" viewBox="0 0 78 100" fill="none" xmlns="http://www.w3.org/2000/svg">
<path d="M70.5896 45.5569C69.3085 43.8901 67.7487 42.4457 66.3004 41.0012C62.5683 37.6677 58.3347 35.2788 54.7697 31.7787C46.4698 23.6673 44.6315 10.2781 49.9234 0C44.6315 1.27781 40.0081 4.16679 36.0531 7.33354C21.6258 18.8894 15.9439 39.2789 22.7398 56.7794C22.9627 57.335 23.1855 57.8905 23.1855 58.6128C23.1855 59.835 22.3499 60.9462 21.2358 61.3906C19.9546 61.9462 18.6177 61.6129 17.5594 60.724C17.2432 60.4598 16.9788 60.1396 16.7795 59.7795C10.4849 51.8348 9.48226 40.4456 13.7158 31.3342C4.41319 38.89 -0.655878 51.6681 0.068275 63.724C0.4025 66.5019 0.736724 69.2798 1.68369 72.0576C2.46355 75.391 3.96756 78.7245 5.63868 81.669C11.6547 91.2804 22.0714 98.1695 33.2679 99.5584C45.1886 101.058 57.9448 98.8917 67.0803 90.6693C77.2741 81.4468 80.8392 66.6686 75.603 54.0015L74.8789 52.5571C73.7091 50.0014 70.5896 45.5569 70.5896 45.5569ZM52.9872 80.5579C51.4274 81.8912 48.8651 83.3357 46.8597 83.8913C40.6208 86.1136 34.382 83.0024 30.7055 79.3356C37.3343 77.78 41.2893 72.891 42.4591 67.9464C43.4061 63.5018 41.6235 59.835 40.8994 55.5571C40.2309 51.4459 40.3423 47.9458 41.8463 44.1124C42.9047 46.2235 44.0188 48.3347 45.3557 50.0014C49.6449 55.5571 56.3851 58.0017 57.8334 65.5574C58.0562 66.3352 58.1676 67.113 58.1676 67.9464C58.3348 72.5021 56.3294 77.5022 52.9872 80.5579Z" fill="#5F4073"/>
</svg>
